# MagicaVoxel @ Ephtracy

# group
o 

# material
mtllib cat.mtl
usemtl palette

# normals
vn -1 0 0
vn 1 0 0
vn 0 0 1
vn 0 0 -1
vn 0 -1 0
vn 0 1 0

# texcoords
vt 0.0410156 0.5
vt 0.0527344 0.5
vt 0.0566406 0.5
vt 0.205078 0.5
vt 0.751953 0.5
vt 0.958984 0.5

# verts
v -0.3 0 0.3
v -0.3 0 0.1
v -0.3 0 -0.2
v -0.3 0 -0.4
v -0.3 0.1 -0.2
v -0.3 0.1 -0.4
v -0.3 0.3 -0.2
v -0.3 0.3 -0.4
v -0.3 0.4 0.3
v -0.3 0.4 0.1
v -0.3 0.4 -0.2
v -0.3 0.6 0.1
v -0.3 0.6 5.96046e-08
v -0.3 0.7 0.3
v -0.3 0.7 5.96046e-08
v -0.3 0.7 -0.4
v -0.2 0.6 0.6
v -0.2 0.6 0.3
v -0.2 0.7 0.3
v -0.2 0.7 5.96046e-08
v -0.2 0.7 -0.1
v -0.2 0.7 -0.3
v -0.2 0.8 0.6
v -0.2 0.8 0.5
v -0.2 0.8 0.1
v -0.2 0.8 5.96046e-08
v -0.2 0.8 -0.1
v -0.2 0.8 -0.3
v -0.2 1 0.5
v -0.2 1 0.4
v -0.2 1 0.3
v -0.2 1 0.1
v -0.2 1.3 0.4
v -0.2 1.3 0.3
v -0.1 1 0.5
v -0.1 1 0.4
v -0.1 1 0.3
v -0.1 1 0.1
v -0.1 1.1 0.5
v -0.1 1.1 0.4
v -0.1 1.1 0.2
v -0.1 1.1 0.1
v -0.1 1.3 0.4
v -0.1 1.3 0.3
v -0.1 1.4 0.4
v -0.1 1.4 0.2
v 2.98023e-08 0.6 -0.4
v 2.98023e-08 0.6 -0.5
v 2.98023e-08 0.6 -0.6
v 2.98023e-08 0.7 -0.4
v 2.98023e-08 0.7 -0.5
v 2.98023e-08 0.7 -0.6
v 2.98023e-08 0.7 -0.7
v 2.98023e-08 0.7 -0.8
v 2.98023e-08 0.8 -0.5
v 2.98023e-08 0.8 -0.7
v 2.98023e-08 0.9 -0.8
v 2.98023e-08 0.9 -0.9
v 2.98023e-08 0.9 -1
v 2.98023e-08 1 -0.7
v 2.98023e-08 1 -0.9
v 2.98023e-08 1.1 -0.9
v 2.98023e-08 1.1 -1
v 0.1 1.1 0.3
v 0.1 1.1 0.2
v 0.1 1.3 0.4
v 0.1 1.3 0.3
v 0.1 1.4 0.4
v 0.1 1.4 0.2
v 0.2 0 0.3
v 0.2 0 0.1
v 0.2 0 -0.2
v 0.2 0 -0.4
v 0.2 0.1 0.2
v 0.2 0.1 0.1
v 0.2 0.2 0.3
v 0.2 0.2 0.2
v 0.2 0.4 0.3
v 0.2 0.4 0.1
v 0.2 0.4 -0.2
v 0.2 0.4 -0.4
v -0.1 0 0.3
v -0.1 0 0.1
v -0.1 0 -0.2
v -0.1 0 -0.4
v -0.1 0.2 -0.3
v -0.1 0.2 -0.4
v -0.1 0.3 -0.2
v -0.1 0.3 -0.3
v -0.1 0.4 0.3
v -0.1 0.4 0.1
v -0.1 0.4 -0.2
v -0.1 0.4 -0.4
v 2.98023e-08 1.1 0.3
v 2.98023e-08 1.1 0.2
v 2.98023e-08 1.3 0.4
v 2.98023e-08 1.3 0.3
v 2.98023e-08 1.4 0.4
v 2.98023e-08 1.4 0.2
v 0.1 0.6 -0.4
v 0.1 0.6 -0.5
v 0.1 0.6 -0.6
v 0.1 0.7 -0.4
v 0.1 0.7 -0.5
v 0.1 0.7 -0.6
v 0.1 0.7 -0.7
v 0.1 0.7 -0.8
v 0.1 0.8 -0.5
v 0.1 0.8 -0.7
v 0.1 0.9 -0.8
v 0.1 0.9 -0.9
v 0.1 0.9 -1
v 0.1 1 -0.7
v 0.1 1 -0.9
v 0.1 1.1 -0.9
v 0.1 1.1 -1
v 0.2 1 0.5
v 0.2 1 0.4
v 0.2 1 0.3
v 0.2 1 0.2
v 0.2 1 0.1
v 0.2 1.1 0.5
v 0.2 1.1 0.4
v 0.2 1.1 0.2
v 0.2 1.1 0.1
v 0.2 1.3 0.4
v 0.2 1.3 0.3
v 0.2 1.4 0.4
v 0.2 1.4 0.2
v 0.3 0.6 0.6
v 0.3 0.6 0.3
v 0.3 0.7 0.3
v 0.3 0.7 -0.1
v 0.3 0.7 -0.2
v 0.3 0.7 -0.3
v 0.3 0.8 0.6
v 0.3 0.8 0.5
v 0.3 0.8 0.1
v 0.3 0.8 -0.1
v 0.3 0.8 -0.2
v 0.3 0.8 -0.3
v 0.3 0.9 0.5
v 0.3 0.9 0.2
v 0.3 1 0.5
v 0.3 1 0.4
v 0.3 1 0.3
v 0.3 1 0.2
v 0.3 1 0.1
v 0.3 1.3 0.4
v 0.3 1.3 0.3
v 0.4 0 0.3
v 0.4 0 0.1
v 0.4 0 -0.2
v 0.4 0 -0.4
v 0.4 0.1 0.2
v 0.4 0.1 0.1
v 0.4 0.2 0.3
v 0.4 0.2 0.2
v 0.4 0.4 0.1
v 0.4 0.4 -0.2
v 0.4 0.7 0.3
v 0.4 0.7 -0.4
v -0.2 0.6 0.6
v -0.2 0.8 0.6
v 2.98023e-08 0.7 0.6
v 2.98023e-08 0.8 0.6
v 0.1 0.7 0.6
v 0.1 0.8 0.6
v 0.3 0.6 0.6
v 0.3 0.8 0.6
v -0.2 0.8 0.5
v -0.2 1 0.5
v -0.1 0.8 0.5
v -0.1 1 0.5
v -0.1 1.1 0.5
v 2.98023e-08 0.8 0.5
v 2.98023e-08 0.9 0.5
v 2.98023e-08 1 0.5
v 2.98023e-08 1.1 0.5
v 0.1 0.8 0.5
v 0.1 0.9 0.5
v 0.1 1 0.5
v 0.2 0.8 0.5
v 0.2 0.9 0.5
v 0.2 1 0.5
v 0.2 1.1 0.5
v 0.3 0.8 0.5
v 0.3 0.9 0.5
v 0.3 1 0.5
v -0.2 1 0.4
v -0.2 1.3 0.4
v -0.1 1 0.4
v -0.1 1.1 0.4
v -0.1 1.3 0.4
v -0.1 1.4 0.4
v 2.98023e-08 1.1 0.4
v 2.98023e-08 1.3 0.4
v 2.98023e-08 1.4 0.4
v 0.1 1.1 0.4
v 0.1 1.3 0.4
v 0.1 1.4 0.4
v 0.2 1 0.4
v 0.2 1.1 0.4
v 0.2 1.3 0.4
v 0.2 1.4 0.4
v 0.3 1 0.4
v 0.3 1.3 0.4
v -0.3 0 0.3
v -0.3 0.4 0.3
v -0.3 0.7 0.3
v -0.2 0.4 0.3
v -0.2 0.6 0.3
v -0.2 0.7 0.3
v -0.1 0 0.3
v -0.1 0.4 0.3
v 0.2 0 0.3
v 0.2 0.2 0.3
v 0.2 0.4 0.3
v 0.3 0.6 0.3
v 0.3 0.7 0.3
v 0.4 0 0.3
v 0.4 0.2 0.3
v 0.4 0.7 0.3
v -0.3 0 -0.2
v -0.3 0.1 -0.2
v -0.3 0.3 -0.2
v -0.3 0.4 -0.2
v -0.2 0 -0.2
v -0.2 0.1 -0.2
v -0.1 0 -0.2
v -0.1 0.3 -0.2
v -0.1 0.4 -0.2
v 0.2 0 -0.2
v 0.2 0.4 -0.2
v 0.4 0 -0.2
v 0.4 0.4 -0.2
v 2.98023e-08 0.7 -0.5
v 2.98023e-08 0.8 -0.5
v 0.1 0.7 -0.5
v 0.1 0.8 -0.5
v 2.98023e-08 0.8 -0.7
v 2.98023e-08 1 -0.7
v 0.1 0.8 -0.7
v 0.1 1 -0.7
v 2.98023e-08 1 -0.9
v 2.98023e-08 1.1 -0.9
v 0.1 1 -0.9
v 0.1 1.1 -0.9
v -0.2 1 0.3
v -0.2 1.3 0.3
v -0.1 1 0.3
v -0.1 1.3 0.3
v 2.98023e-08 1.1 0.3
v 2.98023e-08 1.3 0.3
v 0.1 1.1 0.3
v 0.1 1.3 0.3
v 0.2 1 0.3
v 0.2 1.3 0.3
v 0.3 1 0.3
v 0.3 1.3 0.3
v -0.1 1.1 0.2
v -0.1 1.4 0.2
v 2.98023e-08 1.1 0.2
v 2.98023e-08 1.4 0.2
v 0.1 1.1 0.2
v 0.1 1.4 0.2
v 0.2 1.1 0.2
v 0.2 1.4 0.2
v -0.3 0 0.1
v -0.3 0.4 0.1
v -0.2 0.8 0.1
v -0.2 1 0.1
v -0.1 0 0.1
v -0.1 0.4 0.1
v -0.1 1 0.1
v -0.1 1.1 0.1
v 0.2 0 0.1
v 0.2 0.1 0.1
v 0.2 0.4 0.1
v 0.2 1 0.1
v 0.2 1.1 0.1
v 0.3 0.8 0.1
v 0.3 1 0.1
v 0.4 0 0.1
v 0.4 0.1 0.1
v 0.4 0.4 0.1
v -0.2 0.7 -0.3
v -0.2 0.8 -0.3
v -0.1 0.7 -0.3
v -0.1 0.8 -0.3
v 0.2 0.7 -0.3
v 0.2 0.8 -0.3
v 0.3 0.7 -0.3
v 0.3 0.8 -0.3
v -0.3 0 -0.4
v -0.3 0.1 -0.4
v -0.3 0.3 -0.4
v -0.3 0.7 -0.4
v -0.2 0 -0.4
v -0.2 0.1 -0.4
v -0.2 0.2 -0.4
v -0.2 0.3 -0.4
v -0.1 0 -0.4
v -0.1 0.2 -0.4
v -0.1 0.4 -0.4
v 2.98023e-08 0.6 -0.4
v 2.98023e-08 0.7 -0.4
v 0.1 0.6 -0.4
v 0.1 0.7 -0.4
v 0.2 0 -0.4
v 0.2 0.4 -0.4
v 0.4 0 -0.4
v 0.4 0.7 -0.4
v 2.98023e-08 0.6 -0.6
v 2.98023e-08 0.7 -0.6
v 0.1 0.6 -0.6
v 0.1 0.7 -0.6
v 2.98023e-08 0.7 -0.8
v 2.98023e-08 0.9 -0.8
v 0.1 0.7 -0.8
v 0.1 0.9 -0.8
v 2.98023e-08 0.9 -1
v 2.98023e-08 1.1 -1
v 0.1 0.9 -1
v 0.1 1.1 -1
v -0.3 0 0.3
v -0.1 0 0.3
v 0.2 0 0.3
v 0.4 0 0.3
v -0.3 0 0.1
v -0.1 0 0.1
v 0.2 0 0.1
v 0.4 0 0.1
v -0.3 0 -0.2
v -0.2 0 -0.2
v -0.1 0 -0.2
v 0.2 0 -0.2
v 0.4 0 -0.2
v -0.3 0 -0.4
v -0.2 0 -0.4
v -0.1 0 -0.4
v 0.2 0 -0.4
v 0.4 0 -0.4
v -0.1 0.4 0.3
v 0.2 0.4 0.3
v -0.3 0.4 0.1
v -0.1 0.4 0.1
v 0.2 0.4 0.1
v 0.4 0.4 0.1
v -0.3 0.4 -0.2
v -0.1 0.4 -0.2
v 0.2 0.4 -0.2
v 0.4 0.4 -0.2
v -0.1 0.4 -0.4
v 0.2 0.4 -0.4
v -0.2 0.6 0.6
v 0.3 0.6 0.6
v -0.2 0.6 0.3
v 0.3 0.6 0.3
v 2.98023e-08 0.6 -0.4
v 0.1 0.6 -0.4
v 2.98023e-08 0.6 -0.5
v 0.1 0.6 -0.5
v 2.98023e-08 0.6 -0.6
v 0.1 0.6 -0.6
v 2.98023e-08 0.7 -0.6
v 0.1 0.7 -0.6
v 2.98023e-08 0.7 -0.7
v 0.1 0.7 -0.7
v 2.98023e-08 0.7 -0.8
v 0.1 0.7 -0.8
v 2.98023e-08 0.9 -0.8
v 0.1 0.9 -0.8
v 2.98023e-08 0.9 -0.9
v 0.1 0.9 -0.9
v 2.98023e-08 0.9 -1
v 0.1 0.9 -1
v -0.3 0.7 0.3
v -0.2 0.7 0.3
v 0.3 0.7 0.3
v 0.4 0.7 0.3
v -0.3 0.7 5.96046e-08
v -0.2 0.7 5.96046e-08
v -0.2 0.7 -0.1
v 0.3 0.7 -0.1
v 0.3 0.7 -0.2
v -0.2 0.7 -0.3
v -0.1 0.7 -0.3
v 0.2 0.7 -0.3
v 0.3 0.7 -0.3
v -0.3 0.7 -0.4
v 2.98023e-08 0.7 -0.4
v 0.1 0.7 -0.4
v 0.4 0.7 -0.4
v 2.98023e-08 0.7 -0.5
v 0.1 0.7 -0.5
v -0.2 0.8 0.6
v 2.98023e-08 0.8 0.6
v 0.1 0.8 0.6
v 0.3 0.8 0.6
v -0.2 0.8 0.5
v -0.1 0.8 0.5
v 2.98023e-08 0.8 0.5
v 0.1 0.8 0.5
v 0.2 0.8 0.5
v 0.3 0.8 0.5
v -0.2 0.8 0.1
v 0.3 0.8 0.1
v -0.2 0.8 5.96046e-08
v 2.98023e-08 0.8 5.96046e-08
v -0.2 0.8 -0.1
v -0.1 0.8 -0.1
v 2.98023e-08 0.8 -0.1
v 0.3 0.8 -0.1
v 0.2 0.8 -0.2
v 0.3 0.8 -0.2
v -0.2 0.8 -0.3
v -0.1 0.8 -0.3
v 0.2 0.8 -0.3
v 0.3 0.8 -0.3
v 2.98023e-08 0.8 -0.5
v 0.1 0.8 -0.5
v 2.98023e-08 0.8 -0.7
v 0.1 0.8 -0.7
v -0.2 1 0.5
v -0.1 1 0.5
v 0.2 1 0.5
v 0.3 1 0.5
v -0.2 1 0.4
v -0.1 1 0.4
v 0.2 1 0.4
v 0.3 1 0.4
v -0.2 1 0.3
v -0.1 1 0.3
v 0.2 1 0.3
v 0.3 1 0.3
v 0.2 1 0.2
v 0.3 1 0.2
v -0.2 1 0.1
v -0.1 1 0.1
v 0.2 1 0.1
v 0.3 1 0.1
v 2.98023e-08 1 -0.7
v 0.1 1 -0.7
v 2.98023e-08 1 -0.9
v 0.1 1 -0.9
v -0.1 1.1 0.5
v 2.98023e-08 1.1 0.5
v 0.2 1.1 0.5
v -0.1 1.1 0.4
v 2.98023e-08 1.1 0.4
v 0.1 1.1 0.4
v 0.2 1.1 0.4
v 2.98023e-08 1.1 0.3
v 0.1 1.1 0.3
v -0.1 1.1 0.2
v 2.98023e-08 1.1 0.2
v 0.1 1.1 0.2
v 0.2 1.1 0.2
v -0.1 1.1 0.1
v 0.2 1.1 0.1
v 2.98023e-08 1.1 -0.9
v 0.1 1.1 -0.9
v 2.98023e-08 1.1 -1
v 0.1 1.1 -1
v -0.2 1.3 0.4
v -0.1 1.3 0.4
v 2.98023e-08 1.3 0.4
v 0.1 1.3 0.4
v 0.2 1.3 0.4
v 0.3 1.3 0.4
v -0.2 1.3 0.3
v -0.1 1.3 0.3
v 2.98023e-08 1.3 0.3
v 0.1 1.3 0.3
v 0.2 1.3 0.3
v 0.3 1.3 0.3
v -0.1 1.4 0.4
v 2.98023e-08 1.4 0.4
v 0.1 1.4 0.4
v 0.2 1.4 0.4
v -0.1 1.4 0.2
v 2.98023e-08 1.4 0.2
v 0.1 1.4 0.2
v 0.2 1.4 0.2

# faces
f 5/6/1 4/6/1 3/6/1
f 6/6/1 4/6/1 5/6/1
f 7/4/1 6/4/1 5/4/1
f 8/4/1 6/4/1 7/4/1
f 9/6/1 2/6/1 1/6/1
f 10/6/1 2/6/1 9/6/1
f 11/6/1 8/6/1 7/6/1
f 12/4/1 10/4/1 9/4/1
f 12/6/1 11/6/1 10/6/1
f 13/6/1 11/6/1 12/6/1
f 14/4/1 12/4/1 9/4/1
f 14/4/1 13/4/1 12/4/1
f 15/6/1 11/6/1 13/6/1
f 15/4/1 13/4/1 14/4/1
f 16/6/1 8/6/1 11/6/1
f 16/6/1 11/6/1 15/6/1
f 19/6/1 18/6/1 17/6/1
f 23/6/1 19/6/1 17/6/1
f 23/6/1 20/6/1 19/6/1
f 24/6/1 20/6/1 23/6/1
f 25/6/1 20/6/1 24/6/1
f 26/4/1 21/4/1 20/4/1
f 26/6/1 20/6/1 25/6/1
f 27/6/1 22/6/1 21/6/1
f 27/4/1 21/4/1 26/4/1
f 28/6/1 22/6/1 27/6/1
f 29/6/1 25/6/1 24/6/1
f 30/6/1 25/6/1 29/6/1
f 31/6/1 25/6/1 30/6/1
f 32/6/1 25/6/1 31/6/1
f 33/6/1 31/6/1 30/6/1
f 34/6/1 31/6/1 33/6/1
f 39/6/1 36/6/1 35/6/1
f 40/6/1 36/6/1 39/6/1
f 41/6/1 38/6/1 37/6/1
f 42/6/1 38/6/1 41/6/1
f 44/6/1 41/6/1 37/6/1
f 45/6/1 44/6/1 43/6/1
f 46/6/1 41/6/1 44/6/1
f 46/6/1 44/6/1 45/6/1
f 50/6/1 48/6/1 47/6/1
f 51/4/1 49/4/1 48/4/1
f 51/6/1 48/6/1 50/6/1
f 52/4/1 49/4/1 51/4/1
f 55/4/1 52/4/1 51/4/1
f 55/4/1 53/4/1 52/4/1
f 56/6/1 54/6/1 53/6/1
f 56/4/1 53/4/1 55/4/1
f 57/6/1 54/6/1 56/6/1
f 60/6/1 57/6/1 56/6/1
f 60/6/1 58/6/1 57/6/1
f 61/4/1 59/4/1 58/4/1
f 61/6/1 58/6/1 60/6/1
f 62/4/1 59/4/1 61/4/1
f 63/4/1 59/4/1 62/4/1
f 67/4/1 65/4/1 64/4/1
f 68/4/1 67/4/1 66/4/1
f 69/4/1 65/4/1 67/4/1
f 69/4/1 67/4/1 68/4/1
f 74/4/1 71/4/1 70/4/1
f 75/4/1 71/4/1 74/4/1
f 76/4/1 74/4/1 70/4/1
f 77/6/1 75/6/1 74/6/1
f 77/4/1 74/4/1 76/4/1
f 78/6/1 77/6/1 76/6/1
f 79/6/1 75/6/1 77/6/1
f 79/6/1 77/6/1 78/6/1
f 80/6/1 73/6/1 72/6/1
f 81/6/1 73/6/1 80/6/1
f 84/4/2 85/4/2 86/4/2
f 86/4/2 85/4/2 87/4/2
f 84/4/2 86/4/2 88/4/2
f 86/6/2 87/6/2 89/6/2
f 88/4/2 86/4/2 89/4/2
f 82/6/2 83/6/2 90/6/2
f 90/6/2 83/6/2 91/6/2
f 88/6/2 89/6/2 92/6/2
f 89/6/2 87/6/2 93/6/2
f 92/6/2 89/6/2 93/6/2
f 94/6/2 95/6/2 97/6/2
f 96/6/2 97/6/2 98/6/2
f 97/6/2 95/6/2 99/6/2
f 98/6/2 97/6/2 99/6/2
f 100/6/2 101/6/2 103/6/2
f 101/4/2 102/4/2 104/4/2
f 103/6/2 101/6/2 104/6/2
f 104/4/2 102/4/2 105/4/2
f 104/4/2 105/4/2 108/4/2
f 105/4/2 106/4/2 108/4/2
f 106/6/2 107/6/2 109/6/2
f 108/4/2 106/4/2 109/4/2
f 109/6/2 107/6/2 110/6/2
f 109/6/2 110/6/2 113/6/2
f 110/6/2 111/6/2 113/6/2
f 111/4/2 112/4/2 114/4/2
f 113/6/2 111/6/2 114/6/2
f 114/4/2 112/4/2 115/4/2
f 115/4/2 112/4/2 116/4/2
f 117/4/2 118/4/2 122/4/2
f 122/4/2 118/4/2 123/4/2
f 120/6/2 121/6/2 124/6/2
f 119/4/2 120/4/2 124/4/2
f 124/6/2 121/6/2 125/6/2
f 119/4/2 124/4/2 127/4/2
f 126/4/2 127/4/2 128/4/2
f 127/4/2 124/4/2 129/4/2
f 128/4/2 127/4/2 129/4/2
f 130/6/2 131/6/2 132/6/2
f 130/6/2 132/6/2 136/6/2
f 132/6/2 133/6/2 136/6/2
f 136/6/2 133/6/2 137/6/2
f 137/6/2 133/6/2 138/6/2
f 133/4/2 134/4/2 139/4/2
f 138/6/2 133/6/2 139/6/2
f 134/6/2 135/6/2 140/6/2
f 139/4/2 134/4/2 140/4/2
f 140/6/2 135/6/2 141/6/2
f 137/6/2 138/6/2 142/6/2
f 142/6/2 138/6/2 143/6/2
f 142/4/2 143/4/2 144/4/2
f 144/4/2 143/4/2 145/4/2
f 145/4/2 143/4/2 146/4/2
f 143/6/2 138/6/2 147/6/2
f 146/4/2 143/4/2 147/4/2
f 147/6/2 138/6/2 148/6/2
f 145/4/2 146/4/2 149/4/2
f 149/4/2 146/4/2 150/4/2
f 151/4/2 152/4/2 155/4/2
f 155/4/2 152/4/2 156/4/2
f 151/4/2 155/4/2 157/4/2
f 155/6/2 156/6/2 158/6/2
f 157/4/2 155/4/2 158/4/2
f 157/6/2 158/6/2 159/6/2
f 158/6/2 156/6/2 159/6/2
f 153/6/2 154/6/2 160/6/2
f 157/6/2 159/6/2 161/6/2
f 159/6/2 160/6/2 161/6/2
f 160/6/2 154/6/2 162/6/2
f 161/6/2 160/6/2 162/6/2
f 165/6/3 164/6/3 163/6/3
f 166/6/3 164/6/3 165/6/3
f 167/6/3 165/6/3 163/6/3
f 167/3/3 166/3/3 165/3/3
f 168/3/3 166/3/3 167/3/3
f 169/6/3 167/6/3 163/6/3
f 169/6/3 168/6/3 167/6/3
f 170/6/3 168/6/3 169/6/3
f 173/6/3 172/6/3 171/6/3
f 174/6/3 172/6/3 173/6/3
f 176/5/3 174/5/3 173/5/3
f 177/5/3 174/5/3 176/5/3
f 178/6/3 175/6/3 174/6/3
f 178/5/3 174/5/3 177/5/3
f 179/6/3 175/6/3 178/6/3
f 180/6/3 177/6/3 176/6/3
f 181/4/3 178/4/3 177/4/3
f 181/6/3 177/6/3 180/6/3
f 181/4/3 179/4/3 178/4/3
f 182/4/3 179/4/3 181/4/3
f 183/1/3 181/1/3 180/1/3
f 183/1/3 182/1/3 181/1/3
f 184/1/3 182/1/3 183/1/3
f 185/4/3 179/4/3 182/4/3
f 185/1/3 182/1/3 184/1/3
f 186/4/3 179/4/3 185/4/3
f 187/6/3 184/6/3 183/6/3
f 188/4/3 185/4/3 184/4/3
f 188/6/3 184/6/3 187/6/3
f 189/4/3 185/4/3 188/4/3
f 192/6/3 191/6/3 190/6/3
f 193/6/3 191/6/3 192/6/3
f 194/6/3 191/6/3 193/6/3
f 196/2/3 194/2/3 193/2/3
f 197/6/3 195/6/3 194/6/3
f 197/2/3 194/2/3 196/2/3
f 198/6/3 195/6/3 197/6/3
f 199/4/3 197/4/3 196/4/3
f 200/4/3 197/4/3 199/4/3
f 203/2/3 200/2/3 199/2/3
f 204/4/3 201/4/3 200/4/3
f 204/2/3 200/2/3 203/2/3
f 205/4/3 201/4/3 204/4/3
f 206/4/3 203/4/3 202/4/3
f 206/4/3 204/4/3 203/4/3
f 207/4/3 204/4/3 206/4/3
f 211/6/3 209/6/3 208/6/3
f 211/4/3 210/4/3 209/4/3
f 212/4/3 210/4/3 211/4/3
f 213/4/3 210/4/3 212/4/3
f 214/6/3 211/6/3 208/6/3
f 214/6/3 212/6/3 211/6/3
f 215/6/3 212/6/3 214/6/3
f 218/6/3 212/6/3 215/6/3
f 219/6/3 212/6/3 218/6/3
f 219/6/3 218/6/3 217/6/3
f 221/4/3 217/4/3 216/4/3
f 222/6/3 220/6/3 219/6/3
f 222/4/3 217/4/3 221/4/3
f 222/6/3 219/6/3 217/6/3
f 223/6/3 220/6/3 222/6/3
f 228/6/3 225/6/3 224/6/3
f 229/4/3 226/4/3 225/4/3
f 229/6/3 225/6/3 228/6/3
f 230/4/3 229/4/3 228/4/3
f 231/6/3 227/6/3 226/6/3
f 231/4/3 229/4/3 230/4/3
f 231/4/3 226/4/3 229/4/3
f 232/6/3 227/6/3 231/6/3
f 235/6/3 234/6/3 233/6/3
f 236/6/3 234/6/3 235/6/3
f 239/4/3 238/4/3 237/4/3
f 240/4/3 238/4/3 239/4/3
f 243/6/3 242/6/3 241/6/3
f 244/6/3 242/6/3 243/6/3
f 247/4/3 246/4/3 245/4/3
f 248/4/3 246/4/3 247/4/3
f 249/6/4 250/6/4 251/6/4
f 251/6/4 250/6/4 252/6/4
f 253/4/4 254/4/4 255/4/4
f 255/4/4 254/4/4 256/4/4
f 257/4/4 258/4/4 259/4/4
f 259/4/4 258/4/4 260/4/4
f 261/6/4 262/6/4 263/6/4
f 263/6/4 262/6/4 264/6/4
f 265/4/4 266/4/4 267/4/4
f 267/4/4 266/4/4 268/4/4
f 269/6/4 270/6/4 273/6/4
f 273/6/4 270/6/4 274/6/4
f 271/6/4 272/6/4 275/6/4
f 275/6/4 276/6/4 280/6/4
f 271/6/4 275/6/4 280/6/4
f 280/6/4 276/6/4 281/6/4
f 271/6/4 280/6/4 282/6/4
f 282/6/4 280/6/4 283/6/4
f 277/4/4 278/4/4 284/4/4
f 278/6/4 279/6/4 285/6/4
f 284/4/4 278/4/4 285/4/4
f 285/6/4 279/6/4 286/6/4
f 287/6/4 288/6/4 289/6/4
f 289/6/4 288/6/4 290/6/4
f 289/4/4 290/4/4 291/4/4
f 291/4/4 290/4/4 292/4/4
f 291/6/4 292/6/4 293/6/4
f 293/6/4 292/6/4 294/6/4
f 295/6/4 296/6/4 299/6/4
f 296/4/4 297/4/4 300/4/4
f 299/6/4 296/6/4 300/6/4
f 300/4/4 297/4/4 301/4/4
f 297/6/4 298/6/4 302/6/4
f 301/4/4 297/4/4 302/4/4
f 300/4/4 301/4/4 303/4/4
f 299/4/4 300/4/4 303/4/4
f 301/6/4 302/6/4 304/6/4
f 303/4/4 301/4/4 304/4/4
f 302/6/4 298/6/4 305/6/4
f 304/6/4 302/6/4 305/6/4
f 305/6/4 298/6/4 306/6/4
f 306/6/4 298/6/4 307/6/4
f 305/6/4 306/6/4 308/6/4
f 305/6/4 308/6/4 311/6/4
f 308/6/4 309/6/4 311/6/4
f 310/6/4 311/6/4 312/6/4
f 311/6/4 309/6/4 313/6/4
f 312/6/4 311/6/4 313/6/4
f 314/4/4 315/4/4 316/4/4
f 316/4/4 315/4/4 317/4/4
f 318/6/4 319/6/4 320/6/4
f 320/6/4 319/6/4 321/6/4
f 322/4/4 323/4/4 324/4/4
f 324/4/4 323/4/4 325/4/4
f 330/6/5 327/6/5 326/6/5
f 331/6/5 327/6/5 330/6/5
f 332/4/5 329/4/5 328/4/5
f 333/4/5 329/4/5 332/4/5
f 339/6/5 335/6/5 334/6/5
f 340/4/5 336/4/5 335/4/5
f 340/6/5 335/6/5 339/6/5
f 341/4/5 336/4/5 340/4/5
f 342/6/5 338/6/5 337/6/5
f 343/6/5 338/6/5 342/6/5
f 347/6/5 345/6/5 344/6/5
f 348/6/5 345/6/5 347/6/5
f 350/6/5 347/6/5 346/6/5
f 350/6/5 349/6/5 348/6/5
f 350/6/5 348/6/5 347/6/5
f 351/6/5 349/6/5 350/6/5
f 352/6/5 349/6/5 351/6/5
f 353/6/5 349/6/5 352/6/5
f 354/6/5 352/6/5 351/6/5
f 355/6/5 352/6/5 354/6/5
f 358/6/5 357/6/5 356/6/5
f 359/6/5 357/6/5 358/6/5
f 362/6/5 361/6/5 360/6/5
f 363/6/5 361/6/5 362/6/5
f 364/4/5 363/4/5 362/4/5
f 365/4/5 363/4/5 364/4/5
f 368/4/5 367/4/5 366/4/5
f 369/4/5 367/4/5 368/4/5
f 370/6/5 369/6/5 368/6/5
f 371/6/5 369/6/5 370/6/5
f 374/6/5 373/6/5 372/6/5
f 375/6/5 373/6/5 374/6/5
f 376/4/5 375/4/5 374/4/5
f 377/4/5 375/4/5 376/4/5
f 378/4/6 379/4/6 382/4/6
f 382/4/6 379/4/6 383/4/6
f 382/6/6 383/6/6 384/6/6
f 380/6/6 381/6/6 385/6/6
f 385/6/6 381/6/6 386/6/6
f 382/6/6 384/6/6 387/6/6
f 386/6/6 381/6/6 390/6/6
f 388/6/6 389/6/6 391/6/6
f 389/6/6 390/6/6 391/6/6
f 382/6/6 387/6/6 391/6/6
f 387/6/6 388/6/6 391/6/6
f 391/6/6 390/6/6 392/6/6
f 392/6/6 390/6/6 393/6/6
f 390/6/6 381/6/6 394/6/6
f 393/6/6 390/6/6 394/6/6
f 392/6/6 393/6/6 395/6/6
f 395/6/6 393/6/6 396/6/6
f 397/6/6 398/6/6 401/6/6
f 401/6/6 398/6/6 402/6/6
f 398/3/6 399/3/6 403/3/6
f 402/6/6 398/6/6 403/6/6
f 399/6/6 400/6/6 404/6/6
f 403/3/6 399/3/6 404/3/6
f 404/6/6 400/6/6 405/6/6
f 405/6/6 400/6/6 406/6/6
f 407/6/6 408/6/6 409/6/6
f 409/6/6 408/6/6 410/6/6
f 409/4/6 410/4/6 411/4/6
f 411/4/6 410/4/6 412/4/6
f 410/6/6 408/6/6 413/6/6
f 412/4/6 410/4/6 413/4/6
f 413/6/6 408/6/6 414/6/6
f 412/4/6 413/4/6 415/4/6
f 413/4/6 414/4/6 415/4/6
f 415/4/6 414/4/6 416/4/6
f 411/6/6 412/6/6 417/6/6
f 412/4/6 415/4/6 418/4/6
f 417/6/6 412/6/6 418/6/6
f 415/6/6 416/6/6 419/6/6
f 418/4/6 415/4/6 419/4/6
f 419/6/6 416/6/6 420/6/6
f 421/4/6 422/4/6 423/4/6
f 423/4/6 422/4/6 424/4/6
f 425/6/6 426/6/6 429/6/6
f 429/6/6 426/6/6 430/6/6
f 427/4/6 428/4/6 431/4/6
f 431/4/6 428/4/6 432/4/6
f 435/4/6 436/4/6 437/4/6
f 437/4/6 436/4/6 438/4/6
f 433/6/6 434/6/6 439/6/6
f 439/6/6 434/6/6 440/6/6
f 437/6/6 438/6/6 441/6/6
f 441/6/6 438/6/6 442/6/6
f 443/6/6 444/6/6 445/6/6
f 445/6/6 444/6/6 446/6/6
f 447/6/6 448/6/6 450/6/6
f 448/4/6 449/4/6 451/4/6
f 450/6/6 448/6/6 451/6/6
f 451/4/6 449/4/6 452/4/6
f 452/4/6 449/4/6 453/4/6
f 454/4/6 455/4/6 457/4/6
f 457/4/6 455/4/6 458/4/6
f 456/6/6 457/6/6 460/6/6
f 458/6/6 459/6/6 460/6/6
f 457/6/6 458/6/6 460/6/6
f 460/6/6 459/6/6 461/6/6
f 462/4/6 463/4/6 464/4/6
f 464/4/6 463/4/6 465/4/6
f 466/6/6 467/6/6 472/6/6
f 472/6/6 467/6/6 473/6/6
f 468/4/6 469/4/6 474/4/6
f 474/4/6 469/4/6 475/4/6
f 470/4/6 471/4/6 476/4/6
f 476/4/6 471/4/6 477/4/6
f 478/6/6 479/6/6 482/6/6
f 482/6/6 479/6/6 483/6/6
f 480/4/6 481/4/6 484/4/6
f 484/4/6 481/4/6 485/4/6
