# MagicaVoxel @ Ephtracy

# group
o 

# material
mtllib character.mtl
usemtl palette

# normals
vn -1 0 0
vn 1 0 0
vn 0 0 1
vn 0 0 -1
vn 0 -1 0
vn 0 1 0

# texcoords
vt 0.0332031 0.5
vt 0.0683594 0.5
vt 0.228516 0.5
vt 0.958984 0.5
vt 0.974609 0.5
vt 0.978516 0.5
vt 0.986328 0.5
vt 0.994141 0.5

# verts
v -0.5 0.4 0
v -0.5 0.4 -0.1
v -0.5 0.5 0
v -0.5 0.5 -0.1
v -0.4 0.5 0
v -0.4 0.5 -0.1
v -0.4 0.6 0
v -0.4 0.6 -0.1
v -0.3 0.5 0.1
v -0.3 0.5 0
v -0.3 0.6 0
v -0.3 0.6 -0.1
v -0.3 0.6 -0.2
v -0.3 0.7 0.2
v -0.3 0.7 0.1
v -0.3 0.7 0
v -0.3 0.7 -0.1
v -0.3 0.7 -0.2
v -0.3 0.7 -0.3
v -0.3 0.8 0.1
v -0.3 0.8 0
v -0.3 1.2 0.2
v -0.3 1.2 -0.3
v -0.2 0 0
v -0.2 0 -0.1
v -0.2 0.1 0
v -0.2 0.1 -0.1
v -0.2 0.2 0
v -0.2 0.2 -0.1
v -0.2 0.3 0.1
v -0.2 0.3 0
v -0.2 0.3 -0.1
v -0.2 0.3 -0.2
v -0.2 0.4 0.1
v -0.2 0.4 -0.2
v -0.2 0.5 0.1
v -0.2 0.5 0
v -0.2 0.6 0.2
v -0.2 0.6 0.1
v -0.2 0.6 0
v -0.2 0.6 -0.1
v -0.2 0.6 -0.2
v -0.2 0.6 -0.3
v -0.2 0.7 0.2
v -0.2 0.7 0.1
v -0.2 0.7 0
v -0.2 0.7 -0.2
v -0.2 0.7 -0.3
v -0.2 0.7 -0.4
v -0.2 0.8 0.1
v -0.2 0.8 0
v -0.2 1.1 -0.3
v -0.2 1.1 -0.4
v -0.2 1.2 0.1
v -0.2 1.2 -0.2
v -0.2 1.3 0.1
v -0.2 1.3 -0.2
v -0.1 0.6 -0.3
v -0.1 0.6 -0.4
v -0.1 0.7 -0.3
v -0.1 0.7 -0.4
v -0.1 0.7 -0.6
v -0.1 0.9 0.2
v -0.1 0.9 0.1
v -0.1 1 0.2
v -0.1 1 0.1
v -0.1 1 -0.4
v -0.1 1 -0.6
v 0.1 0 0
v 0.1 0 -0.1
v 0.1 0.1 0
v 0.1 0.1 -0.1
v 0.1 0.2 0
v 0.1 0.2 -0.1
v 0.1 0.3 0
v 0.1 0.3 -0.1
v 0.1 0.6 0.2
v 0.1 0.6 0.1
v 0.1 0.7 0.2
v 0.1 0.7 0.1
v 0.1 1 0.2
v 0.1 1 0.1
v 0.1 1.1 0.2
v 0.1 1.1 0.1
v 0.2 0.7 0.2
v 0.2 0.7 0.1
v 0.2 0.8 0.1
v 0.2 0.9 0.1
v 0.2 1 0.2
v 0.2 1 0.1
v 0.3 0.5 0
v 0.3 0.5 -0.1
v 0.3 0.6 0
v 0.3 0.6 -0.1
v 0.4 0.4 0
v 0.4 0.4 -0.1
v 0.4 0.5 0
v 0.4 0.5 -0.1
v -0.4 0.4 0
v -0.4 0.4 -0.1
v -0.4 0.5 0
v -0.4 0.5 -0.1
v -0.3 0.5 0
v -0.3 0.5 -0.1
v -0.3 0.6 0
v -0.3 0.6 -0.1
v -0.2 0.7 0.2
v -0.2 0.7 0.1
v -0.2 0.8 0.1
v -0.2 0.9 0.1
v -0.2 1 0.2
v -0.2 1 0.1
v -0.1 0 0
v -0.1 0 -0.1
v -0.1 0.1 0
v -0.1 0.1 -0.1
v -0.1 0.2 0
v -0.1 0.2 -0.1
v -0.1 0.3 0
v -0.1 0.3 -0.1
v -0.1 0.6 0.2
v -0.1 0.6 0.1
v -0.1 0.7 0.2
v -0.1 0.7 0.1
v 0 0.9 0.2
v 0 0.9 0.1
v 0 1.1 0.2
v 0 1.1 0.1
v 0.1 0.6 -0.3
v 0.1 0.6 -0.4
v 0.1 0.7 -0.3
v 0.1 0.7 -0.4
v 0.1 0.7 -0.6
v 0.1 1 -0.4
v 0.1 1 -0.6
v 0.2 0 0
v 0.2 0 -0.1
v 0.2 0.1 0
v 0.2 0.1 -0.1
v 0.2 0.2 0
v 0.2 0.2 -0.1
v 0.2 0.3 0.1
v 0.2 0.3 0
v 0.2 0.3 -0.1
v 0.2 0.3 -0.2
v 0.2 0.4 0.1
v 0.2 0.4 0
v 0.2 0.4 -0.1
v 0.2 0.4 -0.2
v 0.2 0.5 0.1
v 0.2 0.5 0
v 0.2 0.5 -0.1
v 0.2 0.5 -0.2
v 0.2 0.6 0.2
v 0.2 0.6 0.1
v 0.2 0.6 0
v 0.2 0.6 -0.1
v 0.2 0.6 -0.2
v 0.2 0.7 0.2
v 0.2 0.7 0.1
v 0.2 0.7 0
v 0.2 0.7 -0.3
v 0.2 0.7 -0.4
v 0.2 0.8 0.1
v 0.2 0.8 0
v 0.2 1.1 -0.3
v 0.2 1.1 -0.4
v 0.2 1.2 0.1
v 0.2 1.2 -0.2
v 0.2 1.3 0.1
v 0.2 1.3 -0.2
v 0.3 0.5 0.1
v 0.3 0.5 0
v 0.3 0.6 0
v 0.3 0.6 -0.1
v 0.3 0.6 -0.3
v 0.3 0.7 0.2
v 0.3 0.7 0.1
v 0.3 0.7 0
v 0.3 0.7 -0.1
v 0.3 0.8 0.1
v 0.3 0.8 0
v 0.3 1.2 0.2
v 0.3 1.2 -0.3
v 0.4 0.5 0
v 0.4 0.5 -0.1
v 0.4 0.6 0
v 0.4 0.6 -0.1
v 0.5 0.4 0
v 0.5 0.4 -0.1
v 0.5 0.5 0
v 0.5 0.5 -0.1
v -0.3 0.7 0.2
v -0.3 1.2 0.2
v -0.2 0.6 0.2
v -0.2 0.7 0.2
v -0.2 1 0.2
v -0.1 0.6 0.2
v -0.1 0.7 0.2
v -0.1 0.9 0.2
v -0.1 1 0.2
v 0 0.9 0.2
v 0 1.1 0.2
v 0.1 0.6 0.2
v 0.1 0.7 0.2
v 0.1 1 0.2
v 0.1 1.1 0.2
v 0.2 0.6 0.2
v 0.2 0.7 0.2
v 0.2 1 0.2
v 0.3 0.7 0.2
v 0.3 1.2 0.2
v -0.3 0.5 0.1
v -0.3 0.7 0.1
v -0.2 0.3 0.1
v -0.2 0.4 0.1
v -0.2 0.5 0.1
v -0.2 0.6 0.1
v -0.2 0.7 0.1
v -0.2 0.8 0.1
v -0.2 0.9 0.1
v -0.2 1 0.1
v -0.2 1.2 0.1
v -0.2 1.3 0.1
v -0.1 0.4 0.1
v -0.1 0.6 0.1
v -0.1 0.7 0.1
v -0.1 0.8 0.1
v -0.1 0.9 0.1
v -0.1 1 0.1
v 0 0.4 0.1
v 0 0.6 0.1
v 0 0.9 0.1
v 0 1.1 0.1
v 0.1 0.4 0.1
v 0.1 0.5 0.1
v 0.1 0.6 0.1
v 0.1 0.7 0.1
v 0.1 0.8 0.1
v 0.1 0.9 0.1
v 0.1 1 0.1
v 0.1 1.1 0.1
v 0.2 0.3 0.1
v 0.2 0.4 0.1
v 0.2 0.5 0.1
v 0.2 0.6 0.1
v 0.2 0.7 0.1
v 0.2 0.8 0.1
v 0.2 0.9 0.1
v 0.2 1 0.1
v 0.2 1.2 0.1
v 0.2 1.3 0.1
v 0.3 0.5 0.1
v 0.3 0.7 0.1
v -0.5 0.4 0
v -0.5 0.5 0
v -0.4 0.4 0
v -0.4 0.5 0
v -0.4 0.6 0
v -0.3 0.5 0
v -0.3 0.6 0
v -0.3 0.7 0
v -0.3 0.8 0
v -0.2 0 0
v -0.2 0.1 0
v -0.2 0.2 0
v -0.2 0.3 0
v -0.2 0.7 0
v -0.2 0.8 0
v -0.1 0 0
v -0.1 0.1 0
v -0.1 0.2 0
v -0.1 0.3 0
v 0.1 0 0
v 0.1 0.1 0
v 0.1 0.2 0
v 0.1 0.3 0
v 0.2 0 0
v 0.2 0.1 0
v 0.2 0.2 0
v 0.2 0.3 0
v 0.2 0.7 0
v 0.2 0.8 0
v 0.3 0.5 0
v 0.3 0.6 0
v 0.3 0.7 0
v 0.3 0.8 0
v 0.4 0.4 0
v 0.4 0.5 0
v 0.4 0.6 0
v 0.5 0.4 0
v 0.5 0.5 0
v -0.3 0.7 0.1
v -0.3 0.8 0.1
v -0.2 0.7 0.1
v -0.2 0.8 0.1
v 0.2 0.7 0.1
v 0.2 0.8 0.1
v 0.3 0.7 0.1
v 0.3 0.8 0.1
v -0.3 0.5 0
v -0.3 0.6 0
v -0.2 0.5 0
v -0.2 0.6 0
v 0.2 0.5 0
v 0.2 0.6 0
v 0.3 0.5 0
v 0.3 0.6 0
v -0.5 0.4 -0.1
v -0.5 0.5 -0.1
v -0.4 0.4 -0.1
v -0.4 0.5 -0.1
v -0.4 0.6 -0.1
v -0.3 0.5 -0.1
v -0.3 0.6 -0.1
v -0.2 0 -0.1
v -0.2 0.1 -0.1
v -0.2 0.2 -0.1
v -0.2 0.3 -0.1
v -0.1 0 -0.1
v -0.1 0.1 -0.1
v -0.1 0.2 -0.1
v -0.1 0.3 -0.1
v 0.1 0 -0.1
v 0.1 0.1 -0.1
v 0.1 0.2 -0.1
v 0.1 0.3 -0.1
v 0.2 0 -0.1
v 0.2 0.1 -0.1
v 0.2 0.2 -0.1
v 0.2 0.3 -0.1
v 0.3 0.5 -0.1
v 0.3 0.6 -0.1
v 0.4 0.4 -0.1
v 0.4 0.5 -0.1
v 0.4 0.6 -0.1
v 0.5 0.4 -0.1
v 0.5 0.5 -0.1
v -0.3 0.6 -0.2
v -0.3 0.7 -0.2
v -0.2 0.3 -0.2
v -0.2 0.4 -0.2
v -0.2 0.6 -0.2
v -0.2 0.7 -0.2
v -0.2 1.2 -0.2
v -0.2 1.3 -0.2
v -0.1 0.4 -0.2
v -0.1 0.6 -0.2
v 0 0.4 -0.2
v 0 0.6 -0.2
v 0.1 0.4 -0.2
v 0.1 0.5 -0.2
v 0.1 0.6 -0.2
v 0.2 0.3 -0.2
v 0.2 0.4 -0.2
v 0.2 0.5 -0.2
v 0.2 0.6 -0.2
v 0.2 1.2 -0.2
v 0.2 1.3 -0.2
v -0.3 0.7 -0.3
v -0.3 1.2 -0.3
v -0.2 0.6 -0.3
v -0.2 0.7 -0.3
v -0.2 1.1 -0.3
v -0.1 0.6 -0.3
v -0.1 0.7 -0.3
v 0.1 0.6 -0.3
v 0.1 0.7 -0.3
v 0.2 0.7 -0.3
v 0.2 1.1 -0.3
v 0.3 0.6 -0.3
v 0.3 1.2 -0.3
v -0.2 0.7 -0.4
v -0.2 1.1 -0.4
v -0.1 0.6 -0.4
v -0.1 0.7 -0.4
v -0.1 1 -0.4
v 0.1 0.6 -0.4
v 0.1 0.7 -0.4
v 0.1 1 -0.4
v 0.2 0.7 -0.4
v 0.2 1.1 -0.4
v -0.1 0.7 -0.6
v -0.1 1 -0.6
v 0.1 0.7 -0.6
v 0.1 1 -0.6
v -0.2 0 0
v -0.1 0 0
v 0.1 0 0
v 0.2 0 0
v -0.2 0 -0.1
v -0.1 0 -0.1
v 0.1 0 -0.1
v 0.2 0 -0.1
v -0.2 0.3 0.1
v 0.2 0.3 0.1
v -0.2 0.3 0
v -0.1 0.3 0
v 0.1 0.3 0
v 0.2 0.3 0
v -0.2 0.3 -0.1
v -0.1 0.3 -0.1
v 0.1 0.3 -0.1
v 0.2 0.3 -0.1
v -0.2 0.3 -0.2
v 0.2 0.3 -0.2
v -0.5 0.4 0
v -0.4 0.4 0
v 0.4 0.4 0
v 0.5 0.4 0
v -0.5 0.4 -0.1
v -0.4 0.4 -0.1
v 0.4 0.4 -0.1
v 0.5 0.4 -0.1
v -0.3 0.5 0.1
v -0.2 0.5 0.1
v 0.2 0.5 0.1
v 0.3 0.5 0.1
v -0.4 0.5 0
v -0.3 0.5 0
v -0.2 0.5 0
v 0.2 0.5 0
v 0.3 0.5 0
v 0.4 0.5 0
v -0.4 0.5 -0.1
v -0.3 0.5 -0.1
v 0.3 0.5 -0.1
v 0.4 0.5 -0.1
v -0.2 0.6 0.2
v -0.1 0.6 0.2
v 0.1 0.6 0.2
v 0.2 0.6 0.2
v -0.2 0.6 0.1
v -0.1 0.6 0.1
v 0.1 0.6 0.1
v 0.2 0.6 0.1
v -0.3 0.6 0
v -0.2 0.6 0
v 0.2 0.6 0
v 0.3 0.6 0
v -0.3 0.6 -0.1
v -0.2 0.6 -0.1
v 0.2 0.6 -0.1
v 0.3 0.6 -0.1
v -0.3 0.6 -0.2
v -0.2 0.6 -0.2
v -0.1 0.6 -0.2
v 0 0.6 -0.2
v 0.1 0.6 -0.2
v 0.2 0.6 -0.2
v -0.2 0.6 -0.3
v -0.1 0.6 -0.3
v 0.1 0.6 -0.3
v 0.3 0.6 -0.3
v -0.1 0.6 -0.4
v 0.1 0.6 -0.4
v -0.3 0.7 0.2
v -0.2 0.7 0.2
v 0.2 0.7 0.2
v 0.3 0.7 0.2
v -0.3 0.7 0.1
v -0.2 0.7 0.1
v 0.2 0.7 0.1
v 0.3 0.7 0.1
v -0.3 0.7 -0.2
v -0.2 0.7 -0.2
v -0.3 0.7 -0.3
v -0.2 0.7 -0.3
v -0.1 0.7 -0.3
v 0.1 0.7 -0.3
v 0.2 0.7 -0.3
v -0.2 0.7 -0.4
v -0.1 0.7 -0.4
v 0.1 0.7 -0.4
v 0.2 0.7 -0.4
v -0.1 0.7 -0.6
v 0.1 0.7 -0.6
v -0.3 0.8 0.1
v -0.2 0.8 0.1
v 0.2 0.8 0.1
v 0.3 0.8 0.1
v -0.3 0.8 0
v -0.2 0.8 0
v 0.2 0.8 0
v 0.3 0.8 0
v -0.1 0.9 0.2
v 0 0.9 0.2
v -0.1 0.9 0.1
v 0 0.9 0.1
v -0.2 1 0.2
v -0.1 1 0.2
v 0.1 1 0.2
v 0.2 1 0.2
v -0.2 1 0.1
v -0.1 1 0.1
v 0.1 1 0.1
v 0.2 1 0.1
v 0 1.1 0.2
v 0.1 1.1 0.2
v 0 1.1 0.1
v 0.1 1.1 0.1
v -0.5 0.5 0
v -0.4 0.5 0
v 0.4 0.5 0
v 0.5 0.5 0
v -0.5 0.5 -0.1
v -0.4 0.5 -0.1
v 0.4 0.5 -0.1
v 0.5 0.5 -0.1
v -0.4 0.6 0
v -0.3 0.6 0
v 0.3 0.6 0
v 0.4 0.6 0
v -0.4 0.6 -0.1
v -0.3 0.6 -0.1
v 0.3 0.6 -0.1
v 0.4 0.6 -0.1
v -0.2 0.7 0.2
v -0.1 0.7 0.2
v 0.1 0.7 0.2
v 0.2 0.7 0.2
v -0.3 0.7 0.1
v -0.2 0.7 0.1
v -0.1 0.7 0.1
v 0.1 0.7 0.1
v 0.2 0.7 0.1
v 0.3 0.7 0.1
v -0.3 0.7 0
v -0.2 0.7 0
v 0.2 0.7 0
v 0.3 0.7 0
v -0.1 1 -0.4
v 0.1 1 -0.4
v -0.1 1 -0.6
v 0.1 1 -0.6
v -0.2 1.1 -0.3
v 0.2 1.1 -0.3
v -0.2 1.1 -0.4
v 0.2 1.1 -0.4
v -0.3 1.2 0.2
v 0.3 1.2 0.2
v -0.2 1.2 0.1
v 0.2 1.2 0.1
v -0.2 1.2 -0.2
v 0.2 1.2 -0.2
v -0.3 1.2 -0.3
v 0.3 1.2 -0.3
v -0.2 1.3 0.1
v 0.2 1.3 0.1
v -0.2 1.3 -0.2
v 0.2 1.3 -0.2

# faces
f 3/1/1 2/1/1 1/1/1
f 4/1/1 2/1/1 3/1/1
f 7/1/1 6/1/1 5/1/1
f 8/1/1 6/1/1 7/1/1
f 11/3/1 10/3/1 9/3/1
f 15/3/1 11/3/1 9/3/1
f 16/6/1 12/6/1 11/6/1
f 16/3/1 11/3/1 15/3/1
f 17/3/1 13/3/1 12/3/1
f 17/6/1 12/6/1 16/6/1
f 18/3/1 13/3/1 17/3/1
f 20/3/1 15/3/1 14/3/1
f 21/3/1 19/3/1 18/3/1
f 21/3/1 18/3/1 17/3/1
f 21/3/1 17/3/1 16/3/1
f 22/3/1 20/3/1 14/3/1
f 22/3/1 21/3/1 20/3/1
f 23/3/1 19/3/1 21/3/1
f 23/3/1 21/3/1 22/3/1
f 26/8/1 25/8/1 24/8/1
f 27/8/1 25/8/1 26/8/1
f 28/4/1 27/4/1 26/4/1
f 29/4/1 27/4/1 28/4/1
f 31/1/1 29/1/1 28/1/1
f 32/1/1 29/1/1 31/1/1
f 34/8/1 32/8/1 31/8/1
f 34/8/1 33/8/1 32/8/1
f 34/8/1 31/8/1 30/8/1
f 35/8/1 33/8/1 34/8/1
f 36/5/1 35/5/1 34/5/1
f 37/5/1 35/5/1 36/5/1
f 40/5/1 35/5/1 37/5/1
f 41/5/1 35/5/1 40/5/1
f 42/5/1 35/5/1 41/5/1
f 44/3/1 39/3/1 38/3/1
f 45/3/1 39/3/1 44/3/1
f 47/3/1 43/3/1 42/3/1
f 48/3/1 43/3/1 47/3/1
f 50/1/1 46/1/1 45/1/1
f 51/1/1 46/1/1 50/1/1
f 52/3/1 49/3/1 48/3/1
f 53/3/1 49/3/1 52/3/1
f 56/3/1 55/3/1 54/3/1
f 57/3/1 55/3/1 56/3/1
f 60/3/1 59/3/1 58/3/1
f 61/3/1 59/3/1 60/3/1
f 65/3/1 64/3/1 63/3/1
f 66/3/1 64/3/1 65/3/1
f 67/3/1 62/3/1 61/3/1
f 68/3/1 62/3/1 67/3/1
f 71/8/1 70/8/1 69/8/1
f 72/8/1 70/8/1 71/8/1
f 73/4/1 72/4/1 71/4/1
f 74/4/1 72/4/1 73/4/1
f 75/1/1 74/1/1 73/1/1
f 76/1/1 74/1/1 75/1/1
f 79/3/1 78/3/1 77/3/1
f 80/3/1 78/3/1 79/3/1
f 83/3/1 82/3/1 81/3/1
f 84/3/1 82/3/1 83/3/1
f 87/3/1 86/3/1 85/3/1
f 88/3/1 87/3/1 85/3/1
f 89/3/1 88/3/1 85/3/1
f 90/3/1 88/3/1 89/3/1
f 93/1/1 92/1/1 91/1/1
f 94/1/1 92/1/1 93/1/1
f 97/1/1 96/1/1 95/1/1
f 98/1/1 96/1/1 97/1/1
f 99/1/2 100/1/2 101/1/2
f 101/1/2 100/1/2 102/1/2
f 103/1/2 104/1/2 105/1/2
f 105/1/2 104/1/2 106/1/2
f 107/3/2 108/3/2 109/3/2
f 107/3/2 109/3/2 110/3/2
f 107/3/2 110/3/2 111/3/2
f 111/3/2 110/3/2 112/3/2
f 113/8/2 114/8/2 115/8/2
f 115/8/2 114/8/2 116/8/2
f 115/4/2 116/4/2 117/4/2
f 117/4/2 116/4/2 118/4/2
f 117/1/2 118/1/2 119/1/2
f 119/1/2 118/1/2 120/1/2
f 121/3/2 122/3/2 123/3/2
f 123/3/2 122/3/2 124/3/2
f 125/3/2 126/3/2 127/3/2
f 127/3/2 126/3/2 128/3/2
f 129/3/2 130/3/2 131/3/2
f 131/3/2 130/3/2 132/3/2
f 132/3/2 133/3/2 134/3/2
f 134/3/2 133/3/2 135/3/2
f 136/8/2 137/8/2 138/8/2
f 138/8/2 137/8/2 139/8/2
f 138/4/2 139/4/2 140/4/2
f 140/4/2 139/4/2 141/4/2
f 140/1/2 141/1/2 143/1/2
f 143/1/2 141/1/2 144/1/2
f 143/8/2 144/8/2 146/8/2
f 144/8/2 145/8/2 146/8/2
f 142/8/2 143/8/2 146/8/2
f 146/8/2 145/8/2 147/8/2
f 147/8/2 145/8/2 148/8/2
f 148/8/2 145/8/2 149/8/2
f 146/6/2 147/6/2 150/6/2
f 147/5/2 148/5/2 151/5/2
f 150/6/2 147/6/2 151/6/2
f 148/6/2 149/6/2 152/6/2
f 151/5/2 148/5/2 152/5/2
f 152/6/2 149/6/2 153/6/2
f 151/7/2 152/7/2 156/7/2
f 152/7/2 153/7/2 156/7/2
f 156/7/2 153/7/2 157/7/2
f 157/7/2 153/7/2 158/7/2
f 154/3/2 155/3/2 159/3/2
f 159/3/2 155/3/2 160/3/2
f 160/1/2 161/1/2 164/1/2
f 164/1/2 161/1/2 165/1/2
f 162/3/2 163/3/2 166/3/2
f 166/3/2 163/3/2 167/3/2
f 168/3/2 169/3/2 170/3/2
f 170/3/2 169/3/2 171/3/2
f 172/3/2 173/3/2 174/3/2
f 172/3/2 174/3/2 178/3/2
f 174/6/2 175/6/2 179/6/2
f 178/3/2 174/3/2 179/3/2
f 175/3/2 176/3/2 180/3/2
f 179/6/2 175/6/2 180/6/2
f 177/3/2 178/3/2 181/3/2
f 179/3/2 180/3/2 182/3/2
f 177/3/2 181/3/2 183/3/2
f 181/3/2 182/3/2 183/3/2
f 180/3/2 176/3/2 184/3/2
f 183/3/2 182/3/2 184/3/2
f 182/3/2 180/3/2 184/3/2
f 185/1/2 186/1/2 187/1/2
f 187/1/2 186/1/2 188/1/2
f 189/1/2 190/1/2 191/1/2
f 191/1/2 190/1/2 192/1/2
f 196/3/3 194/3/3 193/3/3
f 197/3/3 194/3/3 196/3/3
f 198/3/3 196/3/3 195/3/3
f 199/3/3 196/3/3 198/3/3
f 201/3/3 194/3/3 197/3/3
f 202/3/3 201/3/3 200/3/3
f 203/3/3 194/3/3 201/3/3
f 203/3/3 201/3/3 202/3/3
f 207/3/3 194/3/3 203/3/3
f 208/3/3 205/3/3 204/3/3
f 209/3/3 205/3/3 208/3/3
f 210/3/3 207/3/3 206/3/3
f 211/3/3 210/3/3 209/3/3
f 212/3/3 207/3/3 210/3/3
f 212/3/3 210/3/3 211/3/3
f 212/3/3 194/3/3 207/3/3
f 217/3/3 214/3/3 213/3/3
f 218/3/3 214/3/3 217/3/3
f 219/3/3 214/3/3 218/3/3
f 225/8/3 216/8/3 215/8/3
f 225/5/3 217/5/3 216/5/3
f 225/5/3 218/5/3 217/5/3
f 226/5/3 218/5/3 225/5/3
f 227/1/3 220/1/3 219/1/3
f 228/8/3 221/8/3 220/8/3
f 228/1/3 220/1/3 227/1/3
f 229/3/3 222/3/3 221/3/3
f 229/8/3 221/8/3 228/8/3
f 230/3/3 222/3/3 229/3/3
f 231/6/3 226/6/3 225/6/3
f 231/8/3 225/8/3 215/8/3
f 232/5/3 227/5/3 226/5/3
f 232/6/3 226/6/3 231/6/3
f 233/1/3 228/1/3 227/1/3
f 233/1/3 229/1/3 228/1/3
f 235/8/3 231/8/3 215/8/3
f 235/5/3 232/5/3 231/5/3
f 236/5/3 232/5/3 235/5/3
f 237/5/3 227/5/3 232/5/3
f 237/5/3 232/5/3 236/5/3
f 238/1/3 233/1/3 227/1/3
f 238/5/3 227/5/3 237/5/3
f 239/1/3 233/1/3 238/1/3
f 240/3/3 234/3/3 233/3/3
f 240/1/3 233/1/3 239/1/3
f 241/3/3 234/3/3 240/3/3
f 242/3/3 234/3/3 241/3/3
f 243/8/3 235/8/3 215/8/3
f 244/6/3 236/6/3 235/6/3
f 244/8/3 235/8/3 243/8/3
f 245/5/3 237/5/3 236/5/3
f 245/6/3 236/6/3 244/6/3
f 246/5/3 237/5/3 245/5/3
f 247/1/3 239/1/3 238/1/3
f 248/8/3 240/8/3 239/8/3
f 248/1/3 239/1/3 247/1/3
f 249/3/3 241/3/3 240/3/3
f 249/8/3 240/8/3 248/8/3
f 250/3/3 241/3/3 249/3/3
f 251/3/3 224/3/3 223/3/3
f 252/3/3 224/3/3 251/3/3
f 253/3/3 246/3/3 245/3/3
f 253/3/3 247/3/3 246/3/3
f 254/3/3 247/3/3 253/3/3
f 257/1/3 256/1/3 255/1/3
f 258/1/3 256/1/3 257/1/3
f 260/1/3 259/1/3 258/1/3
f 261/1/3 259/1/3 260/1/3
f 268/3/3 263/3/3 262/3/3
f 269/3/3 263/3/3 268/3/3
f 270/8/3 265/8/3 264/8/3
f 271/4/3 266/4/3 265/4/3
f 271/8/3 265/8/3 270/8/3
f 272/1/3 267/1/3 266/1/3
f 272/4/3 266/4/3 271/4/3
f 273/1/3 267/1/3 272/1/3
f 278/8/3 275/8/3 274/8/3
f 279/4/3 276/4/3 275/4/3
f 279/8/3 275/8/3 278/8/3
f 280/1/3 277/1/3 276/1/3
f 280/4/3 276/4/3 279/4/3
f 281/1/3 277/1/3 280/1/3
f 286/3/3 283/3/3 282/3/3
f 287/3/3 283/3/3 286/3/3
f 289/1/3 285/1/3 284/1/3
f 290/1/3 285/1/3 289/1/3
f 291/1/3 289/1/3 288/1/3
f 292/1/3 289/1/3 291/1/3
f 293/3/4 294/3/4 295/3/4
f 295/3/4 294/3/4 296/3/4
f 297/3/4 298/3/4 299/3/4
f 299/3/4 298/3/4 300/3/4
f 301/3/4 302/3/4 303/3/4
f 303/3/4 302/3/4 304/3/4
f 305/3/4 306/3/4 307/3/4
f 307/3/4 306/3/4 308/3/4
f 309/1/4 310/1/4 311/1/4
f 311/1/4 310/1/4 312/1/4
f 312/1/4 313/1/4 314/1/4
f 314/1/4 313/1/4 315/1/4
f 316/8/4 317/8/4 320/8/4
f 317/4/4 318/4/4 321/4/4
f 320/8/4 317/8/4 321/8/4
f 318/1/4 319/1/4 322/1/4
f 321/4/4 318/4/4 322/4/4
f 322/1/4 319/1/4 323/1/4
f 324/8/4 325/8/4 328/8/4
f 325/4/4 326/4/4 329/4/4
f 328/8/4 325/8/4 329/8/4
f 326/1/4 327/1/4 330/1/4
f 329/4/4 326/4/4 330/4/4
f 330/1/4 327/1/4 331/1/4
f 332/1/4 333/1/4 335/1/4
f 335/1/4 333/1/4 336/1/4
f 334/1/4 335/1/4 337/1/4
f 337/1/4 335/1/4 338/1/4
f 339/3/4 340/3/4 343/3/4
f 343/3/4 340/3/4 344/3/4
f 341/8/4 342/8/4 347/8/4
f 342/5/4 343/5/4 347/5/4
f 347/5/4 343/5/4 348/5/4
f 341/8/4 347/8/4 349/8/4
f 347/6/4 348/6/4 349/6/4
f 349/6/4 348/6/4 350/6/4
f 341/8/4 349/8/4 351/8/4
f 349/5/4 350/5/4 351/5/4
f 351/5/4 350/5/4 352/5/4
f 352/5/4 350/5/4 353/5/4
f 341/8/4 351/8/4 354/8/4
f 351/6/4 352/6/4 355/6/4
f 354/8/4 351/8/4 355/8/4
f 352/7/4 353/7/4 356/7/4
f 355/6/4 352/6/4 356/6/4
f 356/7/4 353/7/4 357/7/4
f 345/3/4 346/3/4 358/3/4
f 358/3/4 346/3/4 359/3/4
f 360/3/4 361/3/4 363/3/4
f 363/3/4 361/3/4 364/3/4
f 362/3/4 363/3/4 365/3/4
f 365/3/4 363/3/4 366/3/4
f 367/3/4 368/3/4 369/3/4
f 364/3/4 361/3/4 370/3/4
f 367/3/4 369/3/4 371/3/4
f 369/3/4 370/3/4 371/3/4
f 370/3/4 361/3/4 372/3/4
f 371/3/4 370/3/4 372/3/4
f 373/3/4 374/3/4 376/3/4
f 376/3/4 374/3/4 377/3/4
f 375/3/4 376/3/4 378/3/4
f 378/3/4 376/3/4 379/3/4
f 377/3/4 374/3/4 380/3/4
f 379/3/4 380/3/4 381/3/4
f 380/3/4 374/3/4 382/3/4
f 381/3/4 380/3/4 382/3/4
f 383/3/4 384/3/4 385/3/4
f 385/3/4 384/3/4 386/3/4
f 391/8/5 388/8/5 387/8/5
f 392/8/5 388/8/5 391/8/5
f 393/8/5 390/8/5 389/8/5
f 394/8/5 390/8/5 393/8/5
f 397/8/5 396/8/5 395/8/5
f 398/8/5 396/8/5 397/8/5
f 399/8/5 396/8/5 398/8/5
f 400/8/5 396/8/5 399/8/5
f 402/8/5 399/8/5 398/8/5
f 403/8/5 399/8/5 402/8/5
f 405/8/5 402/8/5 401/8/5
f 405/8/5 404/8/5 403/8/5
f 405/8/5 403/8/5 402/8/5
f 406/8/5 404/8/5 405/8/5
f 411/1/5 408/1/5 407/1/5
f 412/1/5 408/1/5 411/1/5
f 413/1/5 410/1/5 409/1/5
f 414/1/5 410/1/5 413/1/5
f 420/3/5 416/3/5 415/3/5
f 421/3/5 416/3/5 420/3/5
f 422/3/5 418/3/5 417/3/5
f 423/3/5 418/3/5 422/3/5
f 425/1/5 420/1/5 419/1/5
f 426/1/5 420/1/5 425/1/5
f 427/1/5 424/1/5 423/1/5
f 428/1/5 424/1/5 427/1/5
f 433/3/5 430/3/5 429/3/5
f 434/3/5 430/3/5 433/3/5
f 435/3/5 432/3/5 431/3/5
f 436/3/5 432/3/5 435/3/5
f 441/6/5 438/6/5 437/6/5
f 442/6/5 438/6/5 441/6/5
f 443/6/5 440/6/5 439/6/5
f 444/6/5 440/6/5 443/6/5
f 445/3/5 442/3/5 441/3/5
f 446/3/5 442/3/5 445/3/5
f 450/3/5 444/3/5 443/3/5
f 451/3/5 449/3/5 448/3/5
f 451/3/5 450/3/5 449/3/5
f 451/3/5 447/3/5 446/3/5
f 451/3/5 448/3/5 447/3/5
f 452/3/5 450/3/5 451/3/5
f 453/3/5 450/3/5 452/3/5
f 454/3/5 444/3/5 450/3/5
f 454/3/5 450/3/5 453/3/5
f 455/3/5 453/3/5 452/3/5
f 456/3/5 453/3/5 455/3/5
f 461/3/5 458/3/5 457/3/5
f 462/3/5 458/3/5 461/3/5
f 463/3/5 460/3/5 459/3/5
f 464/3/5 460/3/5 463/3/5
f 467/3/5 466/3/5 465/3/5
f 468/3/5 466/3/5 467/3/5
f 472/3/5 469/3/5 468/3/5
f 473/3/5 469/3/5 472/3/5
f 474/3/5 471/3/5 470/3/5
f 475/3/5 471/3/5 474/3/5
f 476/3/5 474/3/5 473/3/5
f 477/3/5 474/3/5 476/3/5
f 482/3/5 479/3/5 478/3/5
f 483/3/5 479/3/5 482/3/5
f 484/3/5 481/3/5 480/3/5
f 485/3/5 481/3/5 484/3/5
f 488/3/5 487/3/5 486/3/5
f 489/3/5 487/3/5 488/3/5
f 494/3/5 491/3/5 490/3/5
f 495/3/5 491/3/5 494/3/5
f 496/3/5 493/3/5 492/3/5
f 497/3/5 493/3/5 496/3/5
f 500/3/5 499/3/5 498/3/5
f 501/3/5 499/3/5 500/3/5
f 502/1/6 503/1/6 506/1/6
f 506/1/6 503/1/6 507/1/6
f 504/1/6 505/1/6 508/1/6
f 508/1/6 505/1/6 509/1/6
f 510/1/6 511/1/6 514/1/6
f 514/1/6 511/1/6 515/1/6
f 512/1/6 513/1/6 516/1/6
f 516/1/6 513/1/6 517/1/6
f 518/3/6 519/3/6 523/3/6
f 523/3/6 519/3/6 524/3/6
f 520/3/6 521/3/6 525/3/6
f 525/3/6 521/3/6 526/3/6
f 522/3/6 523/3/6 528/3/6
f 528/3/6 523/3/6 529/3/6
f 526/3/6 527/3/6 530/3/6
f 530/3/6 527/3/6 531/3/6
f 532/3/6 533/3/6 534/3/6
f 534/3/6 533/3/6 535/3/6
f 536/3/6 537/3/6 538/3/6
f 538/3/6 537/3/6 539/3/6
f 540/3/6 541/3/6 542/3/6
f 542/3/6 541/3/6 543/3/6
f 540/3/6 542/3/6 544/3/6
f 543/3/6 541/3/6 545/3/6
f 540/3/6 544/3/6 546/3/6
f 544/3/6 545/3/6 546/3/6
f 545/3/6 541/3/6 547/3/6
f 546/3/6 545/3/6 547/3/6
f 548/3/6 549/3/6 550/3/6
f 550/3/6 549/3/6 551/3/6
